# xmcd
#
# Track frame offsets:
#	182
#	19515
#	36559
#	47332
#	59264
#	76343
#	88608
#	95438
#	111530
#	127141
#	143687
#	162747
#	179487
#	198783
#	218922
#	234656
#	258203
#	271664
#
# Disc length: 3733 seconds
#
# Revision: 0
# Processed by: cddbd v1.5.2PL0 Copyright (c) Steve Scherf et al.
# Submitted via: audiograbber 1.83.01
#
DISCID=fc0e9312
DTITLE=SirRound - SirRound Mixtape
DYEAR=1900
DGENRE=
TTITLE0=Nichdattedichdavatus
TTITLE1=Ein Ganzes
TTITLE2=Down Mit
TTITLE3=Kas Flows
TTITLE4=Schweig
TTITLE5=So Siehts Aus
TTITLE6=Counterstylez
TTITLE7=Handkuss
TTITLE8=Lass Ma Erzählen
TTITLE9=Dein Problem
TTITLE10=No Money More Problems
TTITLE11=Glaub Et
TTITLE12=Couple Dangereux
TTITLE13=PR Maschiene
TTITLE14=Tequila Blut
TTITLE15=Wie Asi
TTITLE16=Ruhephasen
TTITLE17=Klassika
EXTD=
EXTT0=
EXTT1=
EXTT2=
EXTT3=
EXTT4=
EXTT5=
EXTT6=
EXTT7=
EXTT8=
EXTT9=
EXTT10=
EXTT11=
EXTT12=
EXTT13=
EXTT14=
EXTT15=
EXTT16=
EXTT17=
PLAYORDER=
